<svg id="Layer_1" data-name="Layer 1" xmlns="http://www.w3.org/2000/svg" viewBox="0 0 104.98 105.12"><defs><style>.cls-1{fill:#0175ff;}</style></defs><path class="cls-1" d="M82.51,105.12h-60A21.33,21.33,0,0,1,6.62,98.5,22.37,22.37,0,0,1,0,82.66V22.46A21.33,21.33,0,0,1,6.62,6.62,22.41,22.41,0,0,1,22.46,0H59.9a7,7,0,0,1,5.33,2.3,8.06,8.06,0,0,1,2.31,5.19,7,7,0,0,1-2.31,5.33,6.9,6.9,0,0,1-5.33,2.3H22.46a7.54,7.54,0,0,0-5.32,2.16A6.38,6.38,0,0,0,15,22.46v60.2a7.07,7.07,0,0,0,2.16,5.18A7.22,7.22,0,0,0,22.46,90H82.51a7.08,7.08,0,0,0,5.19-2.16A7.63,7.63,0,0,0,90,82.66V60.05a6.88,6.88,0,0,1,2.3-5.19,8.19,8.19,0,0,1,5.33-2.3,6.28,6.28,0,0,1,5.19,2.3A7.78,7.78,0,0,1,105,60.05V82.66A21.3,21.3,0,0,1,98.35,98.5,22.4,22.4,0,0,1,82.51,105.12ZM61.2,73.73a9.59,9.59,0,0,1-7.06-2.88L34.27,51a10.42,10.42,0,0,1-2.88-7.2,9.92,9.92,0,0,1,2.88-7.06,8.76,8.76,0,0,1,6.91-2.88,10.85,10.85,0,0,1,7.06,2.88L59,47.38,85,6.48A9.72,9.72,0,0,1,91,1.73a10,10,0,0,1,7.63.72,9.25,9.25,0,0,1,4.75,6.05,9.19,9.19,0,0,1-1,7.63L70,68.54Q67.4,73.73,61.2,73.73Z"/></svg>