<?xml version="1.0" encoding="utf-8"?>
<!-- Generator: Adobe Illustrator 25.0.1, SVG Export Plug-In . SVG Version: 6.00 Build 0)  -->
<svg version="1.1" id="Layer_1" xmlns="http://www.w3.org/2000/svg" xmlns:xlink="http://www.w3.org/1999/xlink" x="0px" y="0px"
	 viewBox="0 0 16 16" style="enable-background:new 0 0 16 16;" xml:space="preserve">
<g>
	<path d="M12.2,15.4H3.8c-0.9,0-1.6-0.3-2.2-0.9c-0.6-0.6-0.9-1.4-0.9-2.2V3.8c0-0.9,0.3-1.6,0.9-2.2c0.6-0.6,1.4-0.9,2.2-0.9H9
		c0.3,0,0.5,0.1,0.8,0.3c0.2,0.2,0.3,0.5,0.3,0.7c0,0.3-0.1,0.5-0.3,0.8C9.6,2.6,9.3,2.7,9,2.7H3.8C3.5,2.7,3.2,2.8,3,3
		C2.8,3.2,2.7,3.5,2.7,3.8v8.5c0,0.3,0.1,0.5,0.3,0.7c0.2,0.2,0.5,0.3,0.8,0.3h8.5c0.3,0,0.5-0.1,0.7-0.3c0.2-0.2,0.3-0.4,0.3-0.7
		V9.1c0-0.3,0.1-0.5,0.3-0.7C13.8,8.1,14.1,8,14.4,8c0.3,0,0.5,0.1,0.7,0.3c0.2,0.2,0.3,0.5,0.3,0.7v3.2c0,0.9-0.3,1.6-0.9,2.2
		C13.8,15.1,13.1,15.4,12.2,15.4z M9.2,11c-0.4,0-0.7-0.1-1-0.4L5.4,7.8C5.2,7.5,5,7.1,5,6.8c0-0.4,0.1-0.7,0.4-1
		c0.3-0.3,0.6-0.4,1-0.4c0.4,0,0.7,0.1,1,0.4l1.5,1.5l3.7-5.8c0.2-0.3,0.5-0.6,0.9-0.7c0.4-0.1,0.7-0.1,1.1,0.1
		c0.3,0.2,0.6,0.5,0.7,0.9c0.1,0.4,0.1,0.8-0.1,1.1l-4.6,7.4C10.2,10.7,9.8,11,9.2,11z"/>
</g>
</svg>
